<svg xmlns="http://www.w3.org/2000/svg" width="681.713" height="531.515" viewBox="0 0 180.373 140.629"><path d="M110.88 20.263c-27.186 0-49.23 22.433-49.23 50.05s22.044 50.05 49.23 50.05 49.23-22.433 49.23-50.05-22.044-50.05-49.23-50.05zm0 2.34c25.9 0 46.89 21.336 46.89 47.71s-21 47.71-46.89 47.71-46.89-21.337-46.89-47.71 21-47.71 46.89-47.71z" fill="#de2c68"/><path fill="#fc3" d="M159.358 90.238l-7.096-7.344h15.375V75.55h-15.375l7.096-7.344h-9.462l-10.644 11.016 10.644 11.016z"/><g fill="#de2c68"><path d="M42.893 24.552C19.26 24.552.1 44.1.1 68.16s19.16 43.61 42.794 43.61 42.794-19.548 42.794-43.61-19.16-43.61-42.794-43.61zm0 2.192c22.425 0 40.6 18.52 40.6 41.417s-18.176 41.417-40.6 41.417S2.29 91.06 2.29 68.16s18.177-41.417 40.602-41.417z"/><path d="M110.67.49C92.3.49 74.682 7.864 61.7 20.962S41.46 51.814 41.46 70.314s7.277 36.253 20.25 49.352 30.6 20.473 48.96 20.473 35.988-7.374 48.96-20.473 20.25-30.852 20.25-49.352-7.277-36.253-20.25-49.352S129.04.49 110.67.49zm0 12.663c14.983 0 29.35 6.005 39.962 16.72s16.584 25.263 16.584 40.442-5.972 29.725-16.584 40.44-24.98 16.72-39.962 16.72-29.35-6.005-39.962-16.72-16.584-25.262-16.584-40.44 5.972-29.726 16.584-40.442 24.98-16.72 39.962-16.72z"/></g><path fill="#fc3" d="M16.553 70.12h8.2l9.214 9.536-9.214 9.536h-8.2l6.143-6.358H9.387v-6.358h13.31z"/><path d="M108.022 44.407c-.837.595-.61 3.68-.41 2.784.017 2.702.026 5.392-.38 8.06-.277 3.61-.49 7.24-.28 10.86h-16.46c-2.18-4.607-4.93-9-7.985-13.024-1.684-2.23-2.737-4.986-4.45-7.168-3.632-.41 5.354 10.323 1.508 5.457 1.895 3.425 3.476 7.02 5.4 10.446.194 1.228 1.107 4.783 1.998 4.285-1.066.106-2.22-.16-3.232.17-2.304 1.995-2.346 5.3-3.276 8.015-.833 3.42-1.977 6.797-2.687 10.23-.29 1.71.888 6.317.435 4.53 1.073 2.327 8.71 1.687 6.604 1.22l51.243-.07c1.714-1.572 1.39-5.665 1.318-5.03-.126-2.275-1.09-4.445-1.57-6.67-1.05-3.505-1.7-7.158-3-10.572-2.388-2.868-3.58-2.005-4.9-1.868-.377-.695 4.32-7.837 2.58-5.19 2.193-4.015 3.964-8.223 6.384-12.1 1.28-.808 1.244-3.97-.454-2.31-1.698 2.748-3.093 5.693-5.164 8.176-2.506 3.63-4.916 7.358-6.76 11.376-4.882.2-9.78.073-14.667.1.002-5.022-.306-10.05-.612-15.043l-.002-6.29c-.28-.338-.742-.556-1.174-.37zm-29.085 45.66c.193.228-.333-.26 0 0z" fill="#fff"/></svg>
